<?xml version="1.0" standalone="no"?>
<!DOCTYPE svg PUBLIC "-//W3C//DTD SVG 20010904//EN"
 "http://www.w3.org/TR/2001/REC-SVG-20010904/DTD/svg10.dtd">
<svg version="1.0" xmlns="http://www.w3.org/2000/svg"
 width="805.000000pt" height="805.000000pt" viewBox="0 0 805.000000 805.000000"
 preserveAspectRatio="xMidYMid meet">
<metadata>
Created by potrace 1.14, written by Peter Selinger 2001-2017
</metadata>
<g transform="translate(0.000000,805.000000) scale(0.100000,-0.100000)"
fill="#000000" stroke="none">
<path d="M3687 6234 c-1 -2 -22 -4 -45 -5 -23 -2 -42 -5 -42 -8 0 -4 -17 -7
-37 -9 -53 -3 -249 -66 -330 -105 -80 -38 -147 -83 -187 -125 -33 -36 -56 -35
-125 6 -25 15 -47 26 -48 25 -2 -1 -8 0 -15 2 -7 2 -33 9 -58 15 -25 6 -56 13
-70 17 -80 20 -373 -6 -415 -37 -5 -4 -23 -10 -39 -14 -27 -7 -156 -65 -166
-76 -3 -3 -21 -14 -40 -24 -19 -11 -43 -27 -53 -38 -10 -10 -22 -18 -27 -18
-11 0 -230 -213 -230 -224 0 -4 -9 -17 -21 -29 -11 -12 -35 -46 -52 -75 -18
-29 -42 -70 -54 -90 -29 -48 -53 -101 -53 -116 0 -7 -4 -16 -8 -21 -21 -24
-44 -141 -46 -230 -1 -57 -4 -63 -42 -100 -22 -22 -51 -58 -63 -81 -20 -35
-69 -70 -93 -65 -5 0 -8 -3 -8 -9 0 -5 -5 -10 -11 -10 -11 0 -108 -64 -149
-99 -143 -122 -246 -238 -320 -361 -24 -41 -49 -78 -55 -82 -5 -4 -7 -8 -3 -8
4 0 -6 -26 -21 -57 -29 -58 -87 -194 -97 -228 -2 -5 -17 -48 -35 -95 -40 -110
-46 -210 -16 -290 11 -30 26 -62 33 -71 8 -8 14 -21 14 -27 0 -7 4 -12 9 -12
5 0 13 -10 16 -21 12 -35 222 -237 301 -289 41 -27 106 -60 146 -75 40 -14 80
-30 88 -34 9 -5 31 -12 50 -16 19 -4 41 -12 48 -17 6 -6 12 -7 12 -2 0 5 4 4
8 -1 14 -21 180 -64 297 -79 43 -5 96 -23 105 -34 14 -19 91 -63 131 -75 9 -3
30 -30 47 -60 21 -37 42 -59 66 -71 19 -9 41 -22 48 -29 24 -21 77 -57 86 -57
5 0 14 -11 21 -24 12 -22 10 -29 -22 -78 -20 -29 -45 -63 -56 -75 -33 -35 -91
-152 -91 -183 0 -71 39 -106 140 -125 113 -22 246 26 349 124 52 50 121 139
121 156 0 21 42 42 99 51 20 3 62 17 93 31 32 14 64 23 72 20 18 -7 62 -75 64
-97 1 -17 6 -37 16 -65 45 -119 61 -155 82 -187 13 -21 24 -42 24 -48 0 -5 5
-10 10 -10 6 0 10 -5 10 -11 0 -19 90 -119 132 -146 69 -46 143 -30 171 37 5
14 11 50 12 80 2 30 3 60 4 66 1 14 35 11 104 -10 203 -61 502 -75 807 -39
119 14 115 16 116 -48 1 -103 55 -145 175 -135 61 5 129 30 129 49 0 4 6 7 13
7 28 1 109 136 121 203 10 55 18 65 79 105 65 43 93 68 129 115 21 30 29 30
98 13 14 -4 59 -9 100 -11 43 -3 79 -10 85 -17 26 -33 133 -100 180 -113 17
-4 35 -9 40 -11 87 -25 182 -33 252 -21 30 5 47 15 63 37 24 34 32 95 16 125
-5 11 -11 25 -12 30 -1 6 -16 33 -33 60 -29 45 -30 50 -14 67 9 10 20 18 24
18 16 0 105 65 142 103 35 36 65 89 81 145 8 24 26 28 56 12 11 -6 43 -15 72
-21 29 -6 64 -13 78 -16 37 -8 229 -8 275 0 22 3 60 9 85 13 25 4 50 10 55 14
6 4 23 10 40 14 45 11 186 82 219 111 16 14 32 25 35 25 19 1 151 146 151 166
0 4 6 15 13 23 29 35 50 114 50 195 0 82 -13 127 -47 155 -20 17 -72 21 -111
9 -83 -26 -182 -48 -289 -63 -22 -4 -58 -10 -78 -15 -20 -4 -39 -6 -41 -4 -2
3 -34 -3 -71 -11 -90 -21 -232 -23 -270 -4 -52 25 -55 42 -18 111 98 179 67
468 -63 602 -19 20 -35 43 -35 52 0 9 16 41 35 72 31 52 91 198 101 247 2 11
6 33 10 48 35 165 37 396 3 521 -6 22 -12 46 -14 51 -1 6 -7 24 -14 40 -6 17
-13 35 -15 41 -2 6 -21 37 -42 70 -58 91 -197 222 -334 314 -12 8 -28 20 -34
25 -28 26 -238 155 -301 185 -77 36 -181 74 -235 85 -38 8 -197 9 -245 2 -43
-6 -95 -17 -130 -28 -115 -34 -233 -74 -251 -86 -11 -7 -23 -11 -25 -9 -2 3
-30 -13 -62 -34 -32 -22 -66 -41 -75 -42 -12 -2 -32 27 -75 107 -32 61 -62
112 -68 113 -5 2 -9 8 -9 14 0 18 -93 120 -160 175 -63 52 -199 127 -250 137
-32 6 -58 12 -91 21 -26 6 -197 14 -202 9z"/>
<path d="M7464 4562 c-6 -4 -16 -16 -22 -28 -13 -25 0 -47 65 -109 61 -59 83
-121 85 -239 0 -33 6 -54 19 -67 25 -25 43 -24 73 6 39 39 49 117 27 205 -7
25 -13 51 -14 58 -2 7 -9 18 -15 24 -7 7 -12 17 -12 23 0 15 -68 87 -101 108
-29 18 -90 29 -105 19z"/>
<path d="M7040 4520 c-28 -28 -18 -55 44 -113 60 -58 84 -105 93 -187 3 -30 7
-62 9 -70 1 -8 3 -23 3 -32 1 -28 44 -50 74 -39 37 14 48 42 48 124 0 128 -60
251 -149 308 -53 34 -94 37 -122 9z"/>
<path d="M6656 4501 c-27 -30 -18 -51 49 -118 109 -105 126 -184 68 -312 -31
-70 -21 -108 32 -117 109 -16 175 236 101 387 -60 124 -201 214 -250 160z"/>
</g>
</svg>
